<svg xmlns="http://www.w3.org/2000/svg" viewBox="0 0 425 425" xml:space="preserve"><linearGradient id="a" gradientUnits="userSpaceOnUse" x1="-457.983" y1="541.585" x2="1550.013" y2="-550.41"><stop offset="0" style="stop-color:#00c9ff"/><stop offset="1" style="stop-color:#3b72de"/></linearGradient><path fill="url(#a)" d="M212.5 262.332c22.613 0 41.01-18.398 41.01-41.012v-10.586a4.88 4.88 0 1 0-9.76 0v5.705h-62.5V154.74h62.5v5.323a4.88 4.88 0 1 0 9.76 0V132.6a40.756 40.756 0 0 0-6.072-21.451 4.656 4.656 0 0 0-.368-.59c-7.293-11.397-20.064-18.97-34.57-18.97-22.613 0-41.012 18.397-41.012 41.011v88.72c0 22.615 18.399 41.012 41.012 41.012zm0-9.762c-15.57 0-28.517-11.448-30.868-26.369h61.735c-2.35 14.921-15.297 26.369-30.867 26.369zm0-151.218a31.1 31.1 0 0 1 19.91 7.184H212.5a4.881 4.881 0 0 0 0 9.762h27.777a31.06 31.06 0 0 1 3.473 14.304v12.378h-62.5v-8.46h31.25a4.881 4.881 0 0 0 0-9.762h-30.7c2.745-14.448 15.467-25.406 30.7-25.406z"/><linearGradient id="b" gradientUnits="userSpaceOnUse" x1="-446.201" y1="563.264" x2="1561.813" y2="-528.743"><stop offset="0" style="stop-color:#00c9ff"/><stop offset="1" style="stop-color:#3b72de"/></linearGradient><path fill="url(#b)" d="M248.631 170.778a4.88 4.88 0 0 0-4.881 4.881v19.478a4.88 4.88 0 1 0 9.76 0v-19.478a4.88 4.88 0 0 0-4.879-4.881z"/><linearGradient id="c" gradientUnits="userSpaceOnUse" x1="-417.707" y1="615.644" x2="1590.295" y2="-476.356"><stop offset="0" style="stop-color:#00c9ff"/><stop offset="1" style="stop-color:#3b72de"/></linearGradient><path fill="url(#c)" d="M268.881 323.648h-51.5v-33.877c35.57-2.512 63.746-32.252 63.746-68.451a4.881 4.881 0 0 0-9.762 0c0 32.459-26.407 58.865-58.865 58.865-32.459 0-58.865-26.406-58.865-58.865a4.881 4.881 0 0 0-9.762 0c0 36.199 28.174 65.939 63.746 68.451v33.877h-51.5a4.881 4.881 0 1 0 0 9.762h112.762a4.882 4.882 0 0 0 0-9.762z"/></svg>